<svg width="22" height="20" viewBox="0 0 22 20" fill="none" xmlns="http://www.w3.org/2000/svg">
<path d="M11 3.31697L10.448 3.82497C10.5182 3.90134 10.6036 3.9623 10.6986 4.004C10.7936 4.04571 10.8962 4.06724 11 4.06724C11.1038 4.06724 11.2064 4.04571 11.3014 4.004C11.3964 3.9623 11.4818 3.90134 11.552 3.82497L11 3.31697ZM15.5 11.159L14.973 11.692C15.1134 11.8306 15.3027 11.9083 15.5 11.9083C15.6973 11.9083 15.8866 11.8306 16.027 11.692L15.5 11.158V11.159ZM8.439 16.76C5.385 14.244 1.75 11.774 1.75 7.11997H0.25C0.25 12.636 4.654 15.585 7.485 17.918L8.439 16.76ZM1.75 7.11997C1.75 4.83997 2.982 2.94597 4.636 2.15597C6.232 1.39297 8.386 1.58597 10.448 3.82597L11.552 2.80997C9.114 0.159972 6.268 -0.288028 3.989 0.799972C1.768 1.86297 0.25 4.31397 0.25 7.11997H1.75ZM7.485 17.918C7.997 18.34 8.547 18.79 9.105 19.131C9.661 19.471 10.301 19.751 11 19.751V18.251C10.699 18.251 10.34 18.128 9.886 17.851C9.434 17.575 8.965 17.193 8.439 16.76L7.485 17.918ZM21.75 7.11997C21.75 4.31497 20.232 1.86397 18.01 0.801972C15.732 -0.287028 12.886 0.161972 10.448 2.80997L11.552 3.82597C13.614 1.58597 15.768 1.39297 17.364 2.15597C19.018 2.94597 20.25 4.83997 20.25 7.11997H21.75ZM10.75 13.06C10.75 12.091 11.326 11.273 12.12 10.928C12.877 10.599 13.93 10.663 14.973 11.692L16.027 10.626C14.594 9.21097 12.897 8.95497 11.523 9.55197C10.844 9.85229 10.2673 10.3441 9.86362 10.9672C9.4599 11.5903 9.24665 12.3175 9.25 13.06H10.75ZM13.38 18.77C13.658 18.98 13.978 19.219 14.308 19.402C14.638 19.585 15.044 19.751 15.5 19.751V18.251C15.406 18.251 15.262 18.215 15.037 18.091C14.7733 17.9339 14.5201 17.7589 14.279 17.569L13.379 18.77H13.38ZM17.62 18.77C18.385 18.198 19.426 17.498 20.24 16.626C21.08 15.727 21.75 14.579 21.75 13.06H20.25C20.25 14.085 19.814 14.885 19.144 15.602C18.449 16.347 17.576 16.929 16.721 17.569L17.62 18.77ZM16.721 17.569C16.4799 17.7585 16.2267 17.9332 15.963 18.09C15.738 18.215 15.594 18.251 15.5 18.251V19.751C15.956 19.751 16.361 19.585 16.692 19.401C17.022 19.219 17.342 18.979 17.621 18.771L16.721 17.569ZM21.75 13.06C21.7525 12.0699 21.3728 11.117 20.69 10.4L19.605 11.437C20.002 11.852 20.25 12.424 20.25 13.06H21.75ZM20.69 10.4C20.3496 10.0403 19.94 9.75311 19.4858 9.55566C19.0316 9.35822 18.5422 9.25458 18.047 9.25097C17.003 9.24597 15.926 9.68497 14.973 10.626L16.027 11.692C16.737 10.992 17.445 10.748 18.04 10.751C18.643 10.754 19.199 11.011 19.605 11.436L20.69 10.4ZM20.824 11.242C21.4411 9.95592 21.7577 8.5464 21.75 7.11997H20.25C20.2575 8.32254 19.9908 9.51099 19.47 10.595L20.824 11.242ZM14.279 17.569C14.1349 17.4615 13.9903 17.3558 13.845 17.25L12.959 18.46L13.379 18.77L14.279 17.569ZM13.845 17.25C12.219 16.059 10.75 14.943 10.75 13.06H9.25C9.25 15.827 11.477 17.375 12.959 18.46L13.845 17.25ZM12.939 17.265C12.112 17.913 11.506 18.251 11 18.251V19.751C12.083 19.751 13.065 19.072 13.865 18.445L12.939 17.265Z" fill="#E5E8EB"/>
</svg>
